<?xml version="1.0" standalone="no"?>
<!DOCTYPE svg PUBLIC "-//W3C//DTD SVG 20010904//EN"
 "http://www.w3.org/TR/2001/REC-SVG-20010904/DTD/svg10.dtd">
<svg version="1.0" xmlns="http://www.w3.org/2000/svg"
 width="512.000000pt" height="512.000000pt" viewBox="0 0 512.000000 512.000000"
 preserveAspectRatio="xMidYMid meet">
<metadata>
Created by potrace 1.16, written by Peter Selinger 2001-2019
</metadata>
<g transform="translate(0.000000,512.000000) scale(0.100000,-0.100000)"
fill="#000000" stroke="none">
<path d="M1839 5091 l-29 -29 0 -181 0 -181 -157 0 c-176 0 -223 -9 -253 -47
-18 -24 -20 -40 -20 -204 l0 -179 -165 0 c-265 0 -265 0 -265 -252 l0 -178
-179 0 c-164 0 -180 -2 -204 -20 -15 -12 -31 -38 -37 -58 -11 -40 -15 -3625
-4 -3681 4 -17 18 -42 32 -56 l25 -25 1334 0 1335 0 29 29 29 29 0 181 0 181
173 0 c192 0 212 5 239 60 15 29 18 63 18 203 l0 167 178 0 c252 0 252 0 252
265 l0 165 179 0 c164 0 180 2 204 20 15 12 31 38 37 58 11 40 15 3625 4 3681
-4 17 -18 42 -32 56 l-25 25 -1334 0 -1335 0 -29 -29z m2541 -1891 l0 -1710
-105 0 -105 0 -2 1568 c-3 1683 0 1589 -52 1623 -18 12 -190 14 -1058 17
l-1038 2 0 105 0 105 1180 0 1180 0 0 -1710z m-430 -430 l0 -1710 -105 0 -105
0 0 1556 c0 1362 -2 1560 -15 1588 -31 65 43 61 -1097 64 l-1038 2 0 105 0
105 1180 0 1180 0 0 -1710z m-430 -430 l0 -1710 -105 0 -105 0 0 1574 0 1574
-31 31 -31 31 -1044 0 -1044 0 0 105 0 105 1180 0 1180 0 0 -1710z m-420 -420
l0 -1710 -1180 0 -1180 0 0 1710 0 1710 1180 0 1180 0 0 -1710z"/>
<path d="M1001 3266 c-68 -38 -66 -152 4 -184 19 -9 248 -12 920 -12 l895 0
32 29 c28 25 33 36 33 76 0 40 -5 51 -33 76 l-32 29 -898 0 c-725 -1 -902 -3
-921 -14z"/>
<path d="M979 2849 c-40 -43 -40 -96 0 -141 l29 -33 910 0 910 0 26 24 c31 30
41 71 26 115 -23 70 40 66 -966 66 l-906 0 -29 -31z"/>
<path d="M1023 2479 c-74 -22 -97 -112 -44 -171 l29 -33 695 0 c690 0 696 0
724 21 65 48 49 155 -27 181 -43 15 -1327 16 -1377 2z"/>
<path d="M2703 2484 c-29 -7 -73 -52 -75 -78 -6 -90 37 -136 129 -136 91 0
147 63 124 140 -6 22 -22 47 -35 55 -25 16 -106 27 -143 19z"/>
<path d="M1014 1156 c-17 -8 -39 -24 -48 -37 -21 -30 -21 -88 0 -118 37 -52
18 -51 946 -51 575 0 876 4 901 11 41 11 77 56 77 97 0 39 -29 83 -65 98 -50
20 -1764 20 -1811 0z"/>
<path d="M1014 760 c-66 -27 -84 -116 -35 -169 l29 -31 906 0 c1006 0 943 -4
966 66 15 44 5 85 -26 115 l-26 24 -896 2 c-493 1 -907 -2 -918 -7z"/>
</g>
</svg>
